# xmcd CD database file
#
# Track frame offsets:
#	150
#	19275
#	35925
#	54975
#	72789
#	92514
#	109250
#	129038
#	147038
#	164738
#	188299
#	213089
#
# Disc length: 3587 seconds
#
# Revision: 0
# Processed by: cddbd v1.5.2PL0 Copyright (c) Steve Scherf et al.
# Submitted via: CDex 1.50Beta7
#
DISCID=9d0e010c
DTITLE=Parkdrive - Parkdrive
DYEAR=2005
DGENRE=Jazz
TTITLE0=Sekedar Cerita
TTITLE1=Di Atas Awan
TTITLE2=Hasrat Jiwa
TTITLE3=Kau Tau
TTITLE4=Hanya Hadirmu
TTITLE5=Parkdrive
TTITLE6=Sinari Hari
TTITLE7=Kucoba
TTITLE8=Siapa Dia
TTITLE9=Mengenang Cinta
TTITLE10=Shine A Light
TTITLE11=Start Shakin'
EXTD=YEAR: 2005
EXTT0=
EXTT1=
EXTT2=
EXTT3=
EXTT4=
EXTT5=
EXTT6=
EXTT7=
EXTT8=
EXTT9=
EXTT10=
EXTT11=
PLAYORDER=
